<svg width="14" height="14" viewBox="0 0 14 14" fill="none" xmlns="http://www.w3.org/2000/svg">
<path fill-rule="evenodd" clip-rule="evenodd" d="M1.601 5.203C1.601 3.20983 3.21 1.60091 5.203 1.60091C7.196 1.60091 8.80499 3.20983 8.80499 5.203C8.80499 7.1961 7.196 8.805 5.203 8.805C3.21 8.805 1.601 7.1961 1.601 5.203ZM10.006 8.805H9.373L9.149 8.5889C9.934 7.6764 10.406 6.4917 10.406 5.203C10.406 2.32933 8.077 0 5.203 0C2.329 0 0 2.32933 0 5.203C0 8.0766 2.329 10.4059 5.203 10.4059C6.492 10.4059 7.676 9.9337 8.589 9.1492L8.80499 9.3734V10.0057L12.807 14L14 12.8073L10.21 9.01L10.006 8.805Z" fill="#747F8D"/>
</svg>
