<svg width="24" height="25" viewBox="0 0 24 25" fill="none" xmlns="http://www.w3.org/2000/svg">
<path d="M12 14.5C13.1046 14.5 14 13.6046 14 12.5C14 11.3954 13.1046 10.5 12 10.5C10.8954 10.5 10 11.3954 10 12.5C10 13.6046 10.8954 14.5 12 14.5Z" fill="#B1B1B1"/>
<path d="M19 14.5C20.1046 14.5 21 13.6046 21 12.5C21 11.3954 20.1046 10.5 19 10.5C17.8954 10.5 17 11.3954 17 12.5C17 13.6046 17.8954 14.5 19 14.5Z" fill="#B1B1B1"/>
<path d="M5 14.5C6.10457 14.5 7 13.6046 7 12.5C7 11.3954 6.10457 10.5 5 10.5C3.89543 10.5 3 11.3954 3 12.5C3 13.6046 3.89543 14.5 5 14.5Z" fill="#B1B1B1"/>
</svg>
