<svg width="24" height="24" viewBox="0 0 24 24" fill="none" xmlns="http://www.w3.org/2000/svg">
<g clip-path="url(#clip0)">
<path d="M21.3633 6.27407C21.3657 6.20028 21.3668 6.12617 21.3666 6.05177C21.3558 2.70179 18.6448 -4.70582e-05 15.2949 6.14721e-10C11.9416 4.70594e-05 9.22324 2.7184 9.22324 6.07167C9.22324 6.12598 9.22394 6.18005 9.22535 6.23402C9.2654 7.75995 8.84135 9.25544 8.0054 10.5326C7.07858 11.9486 6.55321 13.651 6.59095 15.4783C6.68949 20.2489 10.6539 24.0689 15.425 23.9991C20.1732 23.9295 24.0008 20.0588 24.0008 15.2941C24.0008 13.5463 23.4857 11.9188 22.5991 10.5551C21.7704 9.28052 21.3135 7.79351 21.3633 6.27407Z" fill="url(#paint0_linear)"/>
<path d="M24 15.2943C24 14.2249 23.8069 13.2007 23.4541 12.2543L13.153 1.95312V19.3545C13.153 20.7823 12.5858 22.1517 11.5761 23.1614C12.7433 23.7163 14.0502 24.0194 15.4243 23.9992C20.1724 23.9297 24 20.059 24 15.2943Z" fill="url(#paint1_linear)"/>
<path d="M6.59015 15.478C6.68869 20.2486 10.6531 24.0687 15.4242 23.9988C20.1724 23.9292 24 20.0585 24 15.2938C24 14.9059 23.9745 14.524 23.9253 14.1494H6.66295C6.60601 14.5831 6.58083 15.0267 6.59015 15.478Z" fill="url(#paint2_linear)"/>
<path d="M20.6117 13.0361C21.106 13.0361 21.5068 12.6354 21.5068 12.1411C21.5068 11.6468 21.106 11.2461 20.6117 11.2461C20.1174 11.2461 19.7167 11.6468 19.7167 12.1411C19.7167 12.6354 20.1174 13.0361 20.6117 13.0361Z" fill="url(#paint3_linear)"/>
<path d="M18.1929 11.313C19.035 11.313 19.7176 10.6304 19.7176 9.78833C19.7176 8.94628 19.035 8.26367 18.1929 8.26367C17.3509 8.26367 16.6683 8.94628 16.6683 9.78833C16.6683 10.6304 17.3509 11.313 18.1929 11.313Z" fill="url(#paint4_linear)"/>
<path d="M21.2988 17.8071C22.1409 17.8071 22.8235 17.1245 22.8235 16.2825C22.8235 15.4404 22.1409 14.7578 21.2988 14.7578C20.4568 14.7578 19.7742 15.4404 19.7742 16.2825C19.7742 17.1245 20.4568 17.8071 21.2988 17.8071Z" fill="url(#paint5_linear)"/>
<path d="M14.7739 6.27407C14.7763 6.20028 14.7774 6.12617 14.7772 6.05177C14.7664 2.70179 12.0554 -4.70582e-05 8.70548 6.14721e-10C5.35221 4.70594e-05 2.63386 2.7184 2.63386 6.07172C2.63386 6.12602 2.63457 6.18009 2.63598 6.23407C2.67603 7.76 2.25198 9.25548 1.41603 10.5327C0.489203 11.9486 -0.0361616 13.651 0.00153248 15.4783C0.100074 20.2489 4.0645 24.0689 8.83565 23.9991C13.5838 23.9295 17.4114 20.0588 17.4114 15.2941C17.4114 13.5463 16.8964 11.9188 16.0097 10.5551C15.1811 9.28052 14.7242 7.79351 14.7739 6.27407Z" fill="url(#paint6_linear)"/>
<path d="M8.70717 22.3529C6.85837 22.3528 5.10674 21.6358 3.77488 20.334C2.44194 19.031 1.68679 17.2945 1.64858 15.4442C1.61898 14.0115 2.01521 12.625 2.79441 11.4345C3.81714 9.87201 4.33178 8.05874 4.28274 6.19069C4.28171 6.15102 4.28119 6.11135 4.28119 6.07158C4.28124 3.63187 6.26608 1.64697 8.7058 1.64697C9.88712 1.64697 10.997 2.10481 11.8311 2.93615C12.6652 3.76744 13.1267 4.87577 13.1304 6.05695C13.1307 6.11135 13.1298 6.1658 13.128 6.21973C13.0683 8.04119 13.5874 9.85064 14.6291 11.4529C15.372 12.5954 15.7647 13.9236 15.7647 15.294C15.7647 17.1611 15.0427 18.9214 13.7317 20.2506C12.422 21.5785 10.6748 22.3248 8.81183 22.3521C8.77681 22.3526 8.74209 22.3529 8.70717 22.3529V22.3529Z" fill="url(#paint7_linear)"/>
<path d="M0.00189446 15.478C0.100436 20.2486 4.06486 24.0687 8.83601 23.9988C13.5842 23.9292 17.4118 20.0585 17.4118 15.2938C17.4118 14.9059 17.3863 14.524 17.3371 14.1494H0.0746945C0.0177533 14.5831 -0.00742319 15.0267 0.00189446 15.478V15.478Z" fill="url(#paint8_linear)"/>
<path d="M12.4604 12.0442C11.5366 11.0491 10.2179 10.4258 8.75296 10.4258C5.95912 10.4258 3.69427 12.6906 3.69427 15.4845C3.69427 16.9494 4.31762 18.2681 5.31272 19.1919L10.0216 23.9008C13.694 23.344 16.6131 20.4935 17.2718 16.8557L12.4604 12.0442Z" fill="url(#paint9_linear)"/>
<path d="M8.70583 20.4958C11.4997 20.4958 13.7645 18.2309 13.7645 15.4371C13.7645 12.6433 11.4997 10.3784 8.70583 10.3784C5.912 10.3784 3.64716 12.6433 3.64716 15.4371C3.64716 18.2309 5.912 20.4958 8.70583 20.4958Z" fill="url(#paint10_linear)"/>
<path d="M3.6582 15.7573C3.82352 18.4018 6.01957 20.4959 8.70578 20.4959C11.392 20.4959 13.588 18.4018 13.7533 15.7573H3.6582Z" fill="url(#paint11_linear)"/>
</g>
<defs>
<linearGradient id="paint0_linear" x1="7.5062" y1="4.74965" x2="22.8334" y2="20.0768" gradientUnits="userSpaceOnUse">
<stop stop-color="#22B27F"/>
<stop offset="1" stop-color="#017B4E"/>
</linearGradient>
<linearGradient id="paint1_linear" x1="22.5903" y1="9.95101" x2="16.4494" y2="12.4215" gradientUnits="userSpaceOnUse">
<stop stop-color="#017B4E" stop-opacity="0"/>
<stop offset="1" stop-color="#026841"/>
</linearGradient>
<linearGradient id="paint2_linear" x1="15.2942" y1="15.6703" x2="15.2942" y2="23.8164" gradientUnits="userSpaceOnUse">
<stop stop-color="#017B4E" stop-opacity="0"/>
<stop offset="1" stop-color="#444444"/>
</linearGradient>
<linearGradient id="paint3_linear" x1="20.6117" y1="11.163" x2="20.6117" y2="13.1573" gradientUnits="userSpaceOnUse">
<stop stop-color="#017B4E" stop-opacity="0"/>
<stop offset="1" stop-color="#026841"/>
</linearGradient>
<linearGradient id="paint4_linear" x1="18.1929" y1="8.12207" x2="18.1929" y2="11.5194" gradientUnits="userSpaceOnUse">
<stop stop-color="white" stop-opacity="0"/>
<stop offset="1" stop-color="#026841"/>
</linearGradient>
<linearGradient id="paint5_linear" x1="21.2988" y1="14.6162" x2="21.2988" y2="18.0136" gradientUnits="userSpaceOnUse">
<stop stop-color="white" stop-opacity="0"/>
<stop offset="1" stop-color="#026841"/>
</linearGradient>
<linearGradient id="paint6_linear" x1="0.916826" y1="4.74965" x2="16.244" y2="20.0768" gradientUnits="userSpaceOnUse">
<stop stop-color="#22B27F"/>
<stop offset="1" stop-color="#017B4E"/>
</linearGradient>
<linearGradient id="paint7_linear" x1="1.36114" y1="5.19351" x2="15.3883" y2="19.2207" gradientUnits="userSpaceOnUse">
<stop stop-color="#FFE177"/>
<stop offset="1" stop-color="#97D729"/>
</linearGradient>
<linearGradient id="paint8_linear" x1="8.70589" y1="15.6317" x2="8.70589" y2="23.2601" gradientUnits="userSpaceOnUse">
<stop stop-color="#017B4E" stop-opacity="0"/>
<stop offset="1" stop-color="#026841"/>
</linearGradient>
<linearGradient id="paint9_linear" x1="15.7167" y1="22.4483" x2="3.98058" y2="10.7121" gradientUnits="userSpaceOnUse">
<stop stop-color="#017B4E" stop-opacity="0"/>
<stop offset="1" stop-color="#026841"/>
</linearGradient>
<linearGradient id="paint10_linear" x1="5.01078" y1="11.742" x2="10.7528" y2="17.484" gradientUnits="userSpaceOnUse">
<stop stop-color="#F6A96C"/>
<stop offset="1" stop-color="#CA6E59"/>
</linearGradient>
<linearGradient id="paint11_linear" x1="8.70578" y1="16.479" x2="8.70578" y2="20.2906" gradientUnits="userSpaceOnUse">
<stop stop-color="#883F2E" stop-opacity="0"/>
<stop offset="1" stop-color="#883F2E"/>
</linearGradient>
<clipPath id="clip0">
<rect width="24" height="24" fill="white"/>
</clipPath>
</defs>
</svg>
